<svg width="512" height="512" viewBox="0 0 512 512" fill="none" xmlns="http://www.w3.org/2000/svg">
<rect width="512" height="512" fill="#FFECED"/>
<g opacity="0.2">
<path d="M353.872 377.814C354.021 377.963 354.12 378.112 354.12 378.261C354.12 381.913 310.478 384.871 256.643 384.871C202.807 384.871 159.165 381.913 159.165 378.261C159.165 378.112 159.265 377.963 159.414 377.814C156.605 378.608 155.076 379.452 155.076 380.325C155.076 385.119 200.554 389 256.643 389C312.731 389 358.209 385.119 358.209 380.325C358.209 379.452 356.681 378.608 353.872 377.814Z" fill="#ED1C24"/>
<path d="M201.557 328.793C210.847 332.445 217.626 328.832 221.904 320.068C223.939 322.371 225.527 324.942 227.78 326.5C230.053 328.068 232.961 329.289 235.66 329.458C238.35 329.626 241.407 328.832 243.799 327.512C250.29 323.919 252.722 316.634 250.4 309.359C248.663 303.92 242.42 299.205 237.338 299.761C242.013 303.403 243.938 308.019 241.695 313.537C239.978 317.746 236.474 320.028 231.919 319.999C227.035 319.969 223.681 317.517 222.023 311.9C220.643 315.979 218.549 318.579 215.214 319.929C211.651 321.378 208.117 320.902 205.338 318.48C203.482 316.862 201.934 314.421 201.19 312.039C199.78 307.503 202.103 303.85 205.616 300.495C198.46 302.054 193.924 307.016 193.11 313.656C192.376 319.87 195.671 326.48 201.557 328.793ZM146.471 269.379C152.307 266.521 157.885 267.871 162.798 271.781C165.071 273.588 166.858 276.039 168.982 278.332C169.647 277.141 170.212 275.692 171.145 274.54C172.535 272.813 172.317 271.235 171.304 269.508C170.798 268.645 170.371 267.732 169.865 266.878C164.952 258.65 155.086 253.469 144.059 258.501C136.238 262.074 128.834 270.451 131.682 281.895C133.221 288.089 136.397 293.022 142.719 294.868C148.426 296.535 153.3 294.6 157.26 290.262C162.113 284.932 160.773 276.754 154.679 274.243C152.525 273.349 150.233 273.528 148.744 275.344C147.771 276.535 147.086 278.451 147.205 279.97C147.374 282.183 149.121 283.354 151.374 283.444C151.602 283.453 151.821 283.682 152.039 283.811C150.54 287.334 146.59 288.069 143.692 285.409C138.818 280.962 140.178 272.456 146.471 269.379ZM232.564 295.364C241.685 294.391 248.365 297.528 251.849 306.371C255.104 314.629 253.973 322.162 247.68 328.703H264.305C255.164 319.989 256.643 302.887 269.933 295.84C263.978 296.208 260.752 299.85 257.526 303.552C258.3 299.999 260.156 297.369 263.015 295.463C267.799 292.297 272.871 292.426 278.24 294.044C268.216 285.111 261.605 273.915 256.434 260.824C255.462 265.895 254.737 270.163 253.824 274.382C252.623 279.88 250.122 284.644 247.879 285.845C249.566 280.734 251.879 275.91 251.611 270.392C246.906 280.019 240.226 287.96 232.564 295.364ZM171.751 301.984C169.349 296.178 163.969 293.448 157.468 294.719C152.555 295.682 148.684 301.041 148.655 306.947C148.625 311.82 151.721 316.594 155.424 317.408C152.575 311.82 152.843 308.148 156.307 305.21C159.156 302.798 162.907 302.719 165.984 305.011C169.448 307.592 170.123 311.026 167.88 316.177C172.207 313.061 173.766 306.858 171.751 301.984ZM340.214 283.007C337.971 273.766 331.371 268.486 322.19 268.704C314.577 268.883 307.858 274.272 306.16 283.146C304.791 290.312 308.503 298.51 314.845 301.657C310.617 293.577 310.935 288.565 315.937 284.347C320.542 280.466 326.349 280.575 331.143 284.625C335.54 288.347 335.827 294.123 331.966 301.458C338.269 298.093 341.902 289.965 340.214 283.007ZM273.744 196.874C270.211 205.629 269.913 214.591 273.992 223.216C280.196 236.348 297.496 240.615 309.158 232.159C316.433 226.879 318.359 218.184 313.982 210.403C310.925 204.964 304.433 203.495 299.719 207.137C297.109 209.152 296.503 211.881 297.059 214.939C297.555 217.658 299.342 219.157 301.982 219.643C302.369 219.713 302.726 220 303.282 220.278C302.915 220.785 302.736 221.231 302.409 221.46C297.287 225.152 290.31 222.849 288.017 216.795C283.759 205.549 293.327 195.465 302.855 194.75C312.423 194.036 319.57 198.919 324.393 206.681C333.555 221.42 331.56 237.023 326.388 252.586C325.029 256.665 323.5 260.675 322.16 264.417C325.495 265.052 329.009 265.727 332.84 266.461C332.751 266.58 333.019 266.332 333.158 266.015C336.046 259.563 339.172 253.201 341.693 246.6C343.43 242.065 344.909 237.261 345.435 232.457C346.18 225.678 346.021 218.79 346.051 211.951C346.061 210.075 345.356 208.199 344.979 206.323C344.522 213.47 344.532 220.517 341.108 227.018C340.691 226.174 340.532 225.34 340.631 224.546C341.406 218.174 341.961 211.822 340.641 205.44C339.381 199.356 337.257 193.748 333.148 189.023C324.245 178.78 313.039 175.197 300.037 177.153C287.937 178.959 278.568 184.914 273.744 196.874ZM181.18 284.198C186.133 280.297 192.227 280.615 196.743 285.002C201.229 289.369 201.299 295.007 196.932 301.508C203.065 299.374 207.294 289.617 205.656 282.858C203.363 273.439 196.604 268.724 188.604 268.694C179.612 268.655 172.277 275.831 171.394 284.724C170.729 291.394 174.788 299.542 179.354 300.704C175.781 293.964 176.456 287.92 181.18 284.198ZM363.351 305.676C362.924 300.634 358.676 295.493 353.971 294.689C347.728 293.627 342.229 296.396 340.125 301.885C338.071 307.255 339.947 313.914 343.768 315.959C341.971 309.805 342.597 307.215 346.517 304.595C349.435 302.639 353.266 302.987 355.916 305.448C359.112 308.406 359.281 311.542 356.542 317.408C360.264 316.872 363.718 310.123 363.351 305.676ZM367.688 295.225C378.844 293.24 382.784 279.523 379.856 271.305C376.819 262.789 368.204 256.665 359.142 256.595C351.172 256.536 343.252 262.372 340.135 270.719C339.827 271.543 339.847 272.724 340.195 273.528C340.889 275.176 341.912 276.684 342.865 278.352C343.272 278.143 343.48 278.104 343.579 277.975C343.907 277.548 344.214 277.091 344.512 276.645C347.103 272.714 350.586 269.885 355.033 268.615C360.026 267.176 364.81 267.513 368.631 271.741C372.929 276.496 371.728 284.208 366.318 286.64C363.589 287.87 360.899 286.679 359.688 283.652C359.906 283.533 360.135 283.295 360.353 283.295C362.725 283.324 364.284 282.302 364.76 279.821C365.256 277.25 363.956 275.652 361.911 274.511C357.921 272.268 352.274 276.436 351.748 281.786C350.954 289.567 359.698 296.644 367.688 295.225ZM412.084 229.638C411.459 237.261 410.278 244.705 405.792 251.166C405.474 250.273 405.424 249.419 405.583 248.605C406.248 245.122 407.151 241.668 407.648 238.154C409.007 228.526 407.677 219.296 402.437 211.058C396.432 201.619 387.668 196.269 376.77 194.998C367.212 193.887 358.299 195.653 350.616 202.224C348.542 204.001 348.185 205.668 348.76 208.15C351.331 219.187 349.038 229.906 346.735 240.655C346.15 243.375 344.294 246.203 347.788 248.983C355.371 255.017 367.112 256 375.192 250.65C382.149 246.045 384.531 238.73 381.633 230.859C379.43 224.854 373.236 222.105 367.926 224.794C365.187 226.184 363.628 228.556 363.688 231.583C363.738 234.422 364.7 237.003 367.936 237.817C368.422 237.936 368.8 238.541 369.266 238.948C364.859 242.382 359.38 240.893 356.879 237.697C352.353 231.911 353.663 222.611 359.837 217.678C367.896 211.226 378.199 211.872 385.941 219.286C394.546 227.534 397.097 237.985 396.144 249.528C394.874 264.972 388.958 278.689 380.303 291.185C376.869 296.138 372.76 300.605 369.097 305.111C370.973 305.994 373.117 306.709 374.924 307.949C376.323 308.912 377.226 309.061 378.358 307.81C382.199 303.612 386.487 299.771 389.822 295.195C401.097 279.702 409.752 262.898 412.183 243.385C412.749 238.859 412.68 234.253 412.908 229.688C412.62 229.688 412.352 229.668 412.084 229.638ZM152.903 337.289C158.064 335.423 161.002 331.343 162.739 325.448C165.468 329.855 168.525 332.842 172.972 333.676C177.369 334.5 181.458 333.626 185.21 330.976C190.043 327.552 192.197 320.237 190.053 314.053C188.167 308.634 182.143 304.336 176.753 304.813C181.686 307.91 183.602 312.207 181.994 317.726C180.664 322.301 177.389 324.971 172.793 325.329C167.989 325.706 164.416 323.344 161.984 318.659C159.275 326.123 153.697 329.468 147.95 327.334C145.151 326.291 142.947 324.485 141.697 321.676C139.513 316.783 141.151 312.584 144.794 308.505C138.134 309.974 133.469 315.711 133.151 322.133C132.824 328.654 136.923 335.175 142.64 337.279C146.074 338.529 149.528 338.51 152.903 337.289ZM367.063 308.585C369.564 311.324 371.45 314.153 371.182 317.885C370.904 321.736 369.028 324.624 365.832 326.54C363.043 328.207 359.986 328.138 356.988 327.264C352.998 326.103 351.113 322.917 350.06 318.639C346.984 323.681 343.103 326.48 337.535 324.942C333.416 323.8 330.368 321.2 329.634 316.574C328.83 311.542 330.498 307.622 335.47 304.714C329.237 304.386 323.589 308.594 321.723 314.421C319.659 320.872 321.922 327.81 327.113 331.363C330.071 333.388 333.267 334.192 336.77 333.924C342.14 333.517 346.061 330.669 349.197 325.339C350.884 330.242 352.8 334.142 356.869 336.247C360.968 338.371 365.256 338.867 369.554 337.09C376.035 334.41 379.519 327.711 378.437 320.376C377.584 314.52 372.561 309.18 367.063 308.585ZM136.049 308.585C138.491 307.513 140.804 306.113 143.225 304.793C134.501 296.793 127.97 286.957 123.047 275.98C118.581 266.015 115.355 255.712 115.613 244.546C115.871 232.973 119.762 223.276 129.449 216.685C139.444 209.896 152.496 213.678 156.773 224.427C158.649 229.152 157.577 235.534 154.401 238.521C151.364 241.38 147.632 241.638 142.57 239.107C143.285 238.511 143.692 238.035 144.208 237.777C147.87 235.911 149.091 232.884 147.712 229.013C145.647 223.246 137.965 221.847 133.191 226.353C127.811 231.435 127.692 241.727 132.943 247.504C140.536 255.871 155.007 256.536 163.989 249.072C165.895 247.484 166.57 246.124 165.806 243.534C162.213 231.296 160.595 218.889 163.453 206.184C163.632 205.41 163.146 204.09 162.52 203.584C160.089 201.599 157.677 199.435 154.917 198.065C145.568 193.43 135.781 193.341 126.283 197.162C114.819 201.768 107.504 210.403 104.814 222.928C102.968 231.504 104.149 239.841 106.243 248.159C106.482 249.122 106.472 250.154 106.571 251.146C106.303 251.206 106.025 251.255 105.757 251.315C101.628 245.082 100.497 237.866 99.6826 230.521C98.571 237.529 99.4742 244.387 101.042 251.126C103.861 263.226 108.854 274.431 115.226 284.992C120.308 293.419 126.015 301.359 133.548 307.731C134.193 308.287 135.434 308.853 136.049 308.585ZM245.516 178.383C251.303 189.162 253.467 200.517 250.856 212.725C248.96 203.445 246.767 194.363 239.988 187.316C245.596 209.39 245.258 231.524 241.745 254.005C241.139 253.657 240.842 253.578 240.703 253.389C240.395 252.943 240.157 252.456 239.928 251.96C236.256 244.199 229.963 240.774 221.775 240.725C213.954 240.675 208.306 244.288 205.001 251.653C201.358 259.781 204.822 269.141 212.782 272.01C217.011 273.528 221.11 273.052 224.574 269.866C227.184 267.464 227.522 264.297 226.837 261.012C226.291 258.412 224.484 256.645 221.993 256.675C220.504 256.695 218.559 257.786 217.676 259.037C216.366 260.893 217.318 262.848 219.075 264.258C219.164 264.327 219.105 264.595 219.115 264.774C216.584 266.233 214.43 265.826 212.832 263.583C210.162 259.851 211.889 253.866 216.256 251.732C221.576 249.131 227.234 251.305 230.162 257.141C233.368 263.503 231.998 269.846 229.646 275.99C226.073 285.3 220.356 293.23 213.705 300.485C213.001 301.25 212.326 302.044 211.641 302.828C211.899 303.056 212.147 303.294 212.405 303.523C216.217 299.85 220.346 296.446 223.76 292.416C227.194 288.376 229.924 283.702 232.961 279.305C231.631 286.242 228.197 292.069 224.197 297.667C230.787 293.468 236.157 288.019 240.712 281.756C246.658 273.568 250.737 264.327 254.777 255.077C255.025 254.511 255.601 254.094 256.027 253.608C256.405 254.054 256.911 254.451 257.149 254.968C258.648 258.283 260.017 261.647 261.546 264.943C267.144 276.942 274.181 287.831 284.742 295.95C285.655 296.654 286.667 297.23 287.63 297.875C280.821 287.017 278.608 282.401 279.332 278.818C284.027 289.508 291.411 297.18 299.56 303.046C295.431 297.021 290.905 290.401 286.369 283.791C282.876 278.689 280.662 273.042 279.977 266.878C279.382 261.499 280.871 256.675 285 253.072C288.136 250.323 291.779 249.806 295.52 251.712C298.776 253.38 300.602 256.308 300.166 259.94C299.947 261.757 298.568 263.771 297.138 264.982C296.195 265.776 294.21 265.28 292.692 265.369C292.573 265.062 292.454 264.754 292.334 264.436C294.667 263.196 295.411 261.151 294.349 259.146C293.714 257.945 291.997 256.893 290.617 256.655C288.305 256.248 286.022 257.568 285.565 259.811C285.049 262.332 284.791 265.538 285.873 267.662C289.585 274.918 299.699 274.134 304.84 268.625C309.843 263.265 309.198 252.625 304.304 247.057C295.292 236.784 278.082 239.156 272.097 251.474C271.7 252.288 271.183 253.042 270.727 253.816C266.677 231.385 266.32 209.281 271.888 187.286C265.119 194.472 262.816 203.524 260.801 212.685C257.566 185.768 269.129 166.721 291.54 153.252C284.464 150.036 278.32 145.898 273.317 140.369C268.384 134.93 264.017 128.975 259.342 123.178C258.39 135.079 257.427 147.208 256.454 159.327C256.097 159.317 255.73 159.297 255.372 159.287C254.419 147.178 253.457 135.069 252.504 122.96C244.405 136.091 234.251 146.642 220.207 153.441C231.492 159.346 239.72 167.594 245.516 178.383ZM306.557 300.684C312.185 307.304 312.384 313.785 307.093 318.014C301.079 322.808 295.53 321.11 289.893 312.743C286.26 319.711 280.533 322.043 274.637 318.44C272.662 317.23 270.915 314.927 270.032 312.713C267.858 307.264 270.459 303.026 275.154 299.265C266.767 300.495 261.754 305.389 260.524 312.823C259.63 318.242 263.511 325.398 268.742 328.009C271.541 329.398 274.459 330.083 277.575 329.517C283.163 328.495 287.074 325.19 289.535 319.552C295.917 329.299 302.915 332.405 310.041 329.1C316.642 326.043 320.145 318.768 318.418 311.691C316.969 305.706 311.193 300.346 306.557 300.684ZM189.557 264.159C189.269 263.464 188.932 262.64 188.584 261.826C183.235 249.231 179.929 236.209 181.706 222.363C182.738 214.303 185.686 206.988 191.8 201.41C200.683 193.301 210.529 192.428 218.847 198.939C225.745 204.338 227.045 214.621 221.576 220.497C218.093 224.239 211.353 224.11 208.862 220.12C209.348 219.911 209.805 219.653 210.291 219.524C213.259 218.74 214.817 216.785 215.065 213.738C215.333 210.422 213.825 207.991 211.244 206.413C208.276 204.596 205.021 204.735 202.023 206.462C196.525 209.628 194.053 217.916 196.554 224.318C198.579 229.499 202.45 232.695 207.413 234.591C215.274 237.588 222.837 237.191 229.874 232.169C240.514 224.576 242.37 208.219 238.082 197.619C230.053 177.728 209.457 173.242 192.088 178.592C186.837 180.21 182.55 184.21 178.977 188.696C171.106 198.601 169.27 209.966 171.126 222.244C171.443 224.358 171.652 226.492 171.9 228.616C171.652 228.655 171.394 228.695 171.145 228.745C167.523 221.718 167.146 214.015 167.364 206.194C161.796 223.345 169.736 250.68 179.304 266.56C182.748 265.747 186.063 264.972 189.557 264.159Z" fill="#ED1C24"/>
<path d="M146.798 344.494C219.7 333.954 292.493 334.261 365.236 344.435C365.703 339.949 365.693 339.978 361.971 339.591C359.043 339.284 356.125 338.787 353.197 338.529C329.941 336.514 306.706 334.142 283.421 332.653C262.35 331.304 241.199 331.522 220.137 333.18C196.703 335.026 173.299 337.398 149.885 339.552C146.213 339.889 146.213 339.929 146.798 344.494Z" fill="#ED1C24"/>
<path d="M365.514 349.219C365.544 347.174 364.571 346.777 362.943 346.619C355.023 345.835 347.122 344.802 339.182 344.207C315.629 342.44 292.086 340.038 268.503 339.413C248.057 338.867 227.541 340.177 207.075 341.13C195.562 341.666 184.088 343.135 172.594 344.207C164.852 344.931 157.111 345.745 149.359 346.42C147.314 346.599 146.352 347.244 146.451 349.586C146.639 353.973 146.51 358.37 146.52 362.767C146.52 366.132 146.52 369.497 146.52 373.199C147.751 373.07 148.446 373.01 149.141 372.921C158.361 371.71 167.552 370.052 176.813 369.387C197.686 367.879 218.579 366.301 239.491 365.745C280.88 364.633 322.13 367.015 363.142 373.04C364.988 373.308 365.504 372.742 365.484 370.916C365.425 363.68 365.395 356.455 365.514 349.219ZM163.89 365.874C165.111 362.628 165.369 359.76 162.272 357.884C160.267 356.673 158.173 356.693 156.307 358.36C154.103 360.326 154.004 361.983 155.761 366.291C152.744 365.854 150.52 362.559 150.619 358.678C150.729 354.301 154.312 350.42 158.748 349.884C162.47 349.428 167.115 352.723 167.969 356.395C168.793 359.869 167.453 365.397 163.89 365.874ZM184.872 363.581C186.063 360.028 186.956 356.673 183.224 354.966C181.924 354.37 179.741 354.509 178.53 355.274C174.788 357.626 176.813 360.921 178.014 363.958C174.847 363.859 172.187 360.703 171.909 357.06C171.512 351.889 174.669 347.423 179.344 346.539C183.512 345.755 188.326 349.06 189.557 353.547C190.658 357.546 188.783 362.072 184.872 363.581ZM206.698 361.07C207.542 357.993 208.405 354.886 204.971 352.882C202.926 351.681 200.931 351.998 199.274 353.547C196.514 356.117 197.567 358.946 199.333 361.675C196.604 362.003 194.043 359.323 193.448 355.819C192.604 350.887 195.472 346.102 199.949 345.001C204.435 343.889 209.556 346.847 210.787 351.284C211.849 355.125 210.41 360.345 206.698 361.07ZM228.286 360.345C229.248 356.981 229.963 353.755 226.281 351.968C224.256 350.986 222.261 351.204 220.534 352.752C217.636 355.353 219.204 358.182 220.593 361.368C216.584 360.018 214.44 356.385 214.866 352.405C215.353 347.889 218.509 344.634 222.846 344.187C226.926 343.76 231.005 346.648 232.206 350.817C233.278 354.509 231.809 358.39 228.286 360.345ZM249.873 359.214C251.104 355.819 251.064 352.633 247.581 351.254C246.052 350.648 243.511 350.966 242.191 351.929C239.184 354.132 239.849 357.219 241.695 360.197C237.447 358.608 235.67 354.886 236.563 350.231C237.248 346.658 241.079 343.691 245.079 343.631C248.92 343.572 252.762 346.678 253.655 350.559C254.459 354.063 252.96 357.715 249.873 359.214ZM270.22 360.206C271.908 357.189 272.593 354.221 269.734 351.79C267.938 350.261 265.744 350.142 263.739 351.432C260.881 353.279 260.96 356.038 261.923 358.996C259.243 358.221 257.615 354.728 258.111 351.065C258.657 347.055 262.776 343.572 266.856 343.661C271.223 343.76 275.024 347.065 275.461 351.145C275.937 355.591 273.923 359.234 270.22 360.206ZM291.084 361.536C293.088 357.983 294.18 354.916 290.974 352.415C289.108 350.956 286.865 350.887 284.96 352.306C282.28 354.291 282.369 357.06 283.739 359.988C280.86 359.373 279.272 356.246 279.52 352.167C279.769 348.207 283.381 344.554 287.451 344.167C291.669 343.76 295.848 346.847 296.85 351.095C297.843 355.283 295.778 359.512 291.084 361.536ZM318.547 355.422C318.081 358.737 315.431 361.715 312.9 361.546C314.259 358.847 315.44 356.068 312.751 353.616C311.024 352.038 308.919 351.621 306.805 352.901C303.441 354.936 304.205 358.033 305.197 361.199C301.595 359.67 299.917 355.303 301.138 351.224C302.478 346.738 307.133 344.028 311.748 345.06C316.125 346.033 319.202 350.738 318.547 355.422ZM340.045 356.881C339.728 360.881 336.76 364.137 333.475 363.78C335.46 361.209 336.83 358.549 334.189 355.75C332.671 354.132 330.666 353.775 328.74 354.718C325.068 356.504 325.435 359.631 326.894 362.896C323.817 362.757 321.892 359.323 322.14 355.174C322.458 350.033 326.825 346.291 332.085 346.648C336.84 346.966 340.472 351.641 340.045 356.881ZM355.787 366.936C357.206 363.67 358.437 360.782 355.509 358.301C353.742 356.802 351.618 356.633 349.743 357.795C346.656 359.7 346.765 362.658 348.085 365.794C345.187 365.12 343.331 361.725 343.638 358.023C343.996 353.626 347.47 350.222 351.976 349.834C356.015 349.497 360.125 352.762 361.157 357.159C362.06 360.971 359.966 365.1 355.787 366.936Z" fill="#ED1C24"/>
<path d="M256.642 381.536C307.896 381.536 349.445 379.394 349.445 376.752C349.445 374.11 307.896 371.968 256.642 371.968C205.389 371.968 163.84 374.11 163.84 376.752C163.84 379.394 205.389 381.536 256.642 381.536Z" fill="#ED1C24"/>
</g>
</svg>
